<mxfile host="app.diagrams.net" modified="2023-04-05T13:47:49.974Z" agent="5.0 (Windows NT 10.0; Win64; x64) AppleWebKit/537.36 (KHTML, like Gecko) Chrome/110.0.0.0 Safari/537.36 OPR/96.0.0.0" etag="IVGZewKx-IA4YtF2DoA8" version="20.8.23" type="github">
  <diagram name="Strona-1" id="XNgz1XbpTpGLzJ-qJ96l">
    <mxGraphModel dx="814" dy="462" grid="1" gridSize="10" guides="1" tooltips="1" connect="1" arrows="1" fold="1" page="1" pageScale="1" pageWidth="827" pageHeight="1169" math="0" shadow="0">
      <root>
        <mxCell id="0" />
        <mxCell id="1" parent="0" />
        <mxCell id="vrSPHVwkaw0fhpBoeGGF-3" style="edgeStyle=orthogonalEdgeStyle;rounded=0;orthogonalLoop=1;jettySize=auto;html=1;entryX=0.5;entryY=0;entryDx=0;entryDy=0;" edge="1" parent="1" source="vrSPHVwkaw0fhpBoeGGF-1" target="vrSPHVwkaw0fhpBoeGGF-2">
          <mxGeometry relative="1" as="geometry" />
        </mxCell>
        <mxCell id="vrSPHVwkaw0fhpBoeGGF-1" value="START" style="ellipse;whiteSpace=wrap;html=1;" vertex="1" parent="1">
          <mxGeometry x="340" y="70" width="120" height="80" as="geometry" />
        </mxCell>
        <mxCell id="vrSPHVwkaw0fhpBoeGGF-5" style="edgeStyle=orthogonalEdgeStyle;rounded=0;orthogonalLoop=1;jettySize=auto;html=1;entryX=0.5;entryY=0;entryDx=0;entryDy=0;" edge="1" parent="1" source="vrSPHVwkaw0fhpBoeGGF-2" target="vrSPHVwkaw0fhpBoeGGF-4">
          <mxGeometry relative="1" as="geometry" />
        </mxCell>
        <mxCell id="vrSPHVwkaw0fhpBoeGGF-2" value="Pobierz a" style="rounded=0;whiteSpace=wrap;html=1;" vertex="1" parent="1">
          <mxGeometry x="340" y="190" width="120" height="60" as="geometry" />
        </mxCell>
        <mxCell id="vrSPHVwkaw0fhpBoeGGF-7" style="edgeStyle=orthogonalEdgeStyle;rounded=0;orthogonalLoop=1;jettySize=auto;html=1;exitX=0;exitY=0.5;exitDx=0;exitDy=0;" edge="1" parent="1" source="vrSPHVwkaw0fhpBoeGGF-4" target="vrSPHVwkaw0fhpBoeGGF-6">
          <mxGeometry relative="1" as="geometry" />
        </mxCell>
        <mxCell id="vrSPHVwkaw0fhpBoeGGF-8" value="Tak" style="edgeLabel;html=1;align=center;verticalAlign=middle;resizable=0;points=[];" vertex="1" connectable="0" parent="vrSPHVwkaw0fhpBoeGGF-7">
          <mxGeometry x="-0.2857" y="-2" relative="1" as="geometry">
            <mxPoint as="offset" />
          </mxGeometry>
        </mxCell>
        <mxCell id="vrSPHVwkaw0fhpBoeGGF-10" style="edgeStyle=orthogonalEdgeStyle;rounded=0;orthogonalLoop=1;jettySize=auto;html=1;entryX=0.5;entryY=0;entryDx=0;entryDy=0;exitX=1;exitY=0.5;exitDx=0;exitDy=0;" edge="1" parent="1" source="vrSPHVwkaw0fhpBoeGGF-4" target="vrSPHVwkaw0fhpBoeGGF-17">
          <mxGeometry relative="1" as="geometry">
            <mxPoint x="460" y="530" as="targetPoint" />
          </mxGeometry>
        </mxCell>
        <mxCell id="vrSPHVwkaw0fhpBoeGGF-11" value="Nie" style="edgeLabel;html=1;align=center;verticalAlign=middle;resizable=0;points=[];" vertex="1" connectable="0" parent="vrSPHVwkaw0fhpBoeGGF-10">
          <mxGeometry x="-0.2727" y="1" relative="1" as="geometry">
            <mxPoint x="-1" y="1" as="offset" />
          </mxGeometry>
        </mxCell>
        <mxCell id="vrSPHVwkaw0fhpBoeGGF-4" value="a&amp;lt;0" style="rhombus;whiteSpace=wrap;html=1;" vertex="1" parent="1">
          <mxGeometry x="360" y="310" width="80" height="80" as="geometry" />
        </mxCell>
        <mxCell id="vrSPHVwkaw0fhpBoeGGF-12" style="edgeStyle=orthogonalEdgeStyle;rounded=0;orthogonalLoop=1;jettySize=auto;html=1;entryX=0;entryY=0.5;entryDx=0;entryDy=0;" edge="1" parent="1" source="vrSPHVwkaw0fhpBoeGGF-6" target="vrSPHVwkaw0fhpBoeGGF-13">
          <mxGeometry relative="1" as="geometry">
            <mxPoint x="340" y="530" as="targetPoint" />
          </mxGeometry>
        </mxCell>
        <mxCell id="vrSPHVwkaw0fhpBoeGGF-6" value="a*(-1)" style="rounded=0;whiteSpace=wrap;html=1;" vertex="1" parent="1">
          <mxGeometry x="240" y="390" width="120" height="60" as="geometry" />
        </mxCell>
        <mxCell id="vrSPHVwkaw0fhpBoeGGF-13" value="STOP" style="ellipse;whiteSpace=wrap;html=1;" vertex="1" parent="1">
          <mxGeometry x="340" y="470" width="120" height="80" as="geometry" />
        </mxCell>
        <mxCell id="vrSPHVwkaw0fhpBoeGGF-18" style="edgeStyle=orthogonalEdgeStyle;rounded=0;orthogonalLoop=1;jettySize=auto;html=1;entryX=1;entryY=0.5;entryDx=0;entryDy=0;exitX=0.5;exitY=1;exitDx=0;exitDy=0;" edge="1" parent="1" source="vrSPHVwkaw0fhpBoeGGF-17" target="vrSPHVwkaw0fhpBoeGGF-13">
          <mxGeometry relative="1" as="geometry" />
        </mxCell>
        <mxCell id="vrSPHVwkaw0fhpBoeGGF-17" value="a" style="rounded=0;whiteSpace=wrap;html=1;" vertex="1" parent="1">
          <mxGeometry x="470" y="400" width="120" height="60" as="geometry" />
        </mxCell>
      </root>
    </mxGraphModel>
  </diagram>
</mxfile>
